<?xml version="1.0" encoding="UTF-8" standalone="no"?>
<!DOCTYPE svg PUBLIC "-//W3C//DTD SVG 1.1//EN"
 "http://www.w3.org/Graphics/SVG/1.1/DTD/svg11.dtd">
<!-- Generated by graphviz version 9.0.0 (20231125.0833)
 -->
<!-- Title: snakemake_dag Pages: 1 -->
<svg width="597pt" height="404pt"
 viewBox="0.00 0.00 597.12 404.00" xmlns="http://www.w3.org/2000/svg" xmlns:xlink="http://www.w3.org/1999/xlink">
<g id="graph0" class="graph" transform="scale(1 1) rotate(0) translate(4 400)">
<title>snakemake_dag</title>
<polygon fill="white" stroke="none" points="-4,4 -4,-400 593.12,-400 593.12,4 -4,4"/>
<!-- 0 -->
<g id="node1" class="node">
<title>0</title>
<path fill="none" stroke="#56d88a" stroke-width="2" d="M229.88,-36C229.88,-36 199.88,-36 199.88,-36 193.88,-36 187.88,-30 187.88,-24 187.88,-24 187.88,-12 187.88,-12 187.88,-6 193.88,0 199.88,0 199.88,0 229.88,0 229.88,0 235.88,0 241.88,-6 241.88,-12 241.88,-12 241.88,-24 241.88,-24 241.88,-30 235.88,-36 229.88,-36"/>
<text text-anchor="middle" x="214.88" y="-14.88" font-family="sans" font-size="10.00">all</text>
</g>
<!-- 1 -->
<g id="node2" class="node">
<title>1</title>
<path fill="none" stroke="#d88d56" stroke-width="2" d="M139.75,-252C139.75,-252 12,-252 12,-252 6,-252 0,-246 0,-240 0,-240 0,-228 0,-228 0,-222 6,-216 12,-216 12,-216 139.75,-216 139.75,-216 145.75,-216 151.75,-222 151.75,-228 151.75,-228 151.75,-240 151.75,-240 151.75,-246 145.75,-252 139.75,-252"/>
<text text-anchor="middle" x="75.88" y="-230.88" font-family="sans" font-size="10.00">differential_analysis_limma</text>
</g>
<!-- 1&#45;&gt;0 -->
<g id="edge3" class="edge">
<title>1&#45;&gt;0</title>
<path fill="none" stroke="grey" stroke-width="2" d="M71.43,-215.05C67.76,-196.42 64.65,-166.85 74.88,-144 95.45,-98.04 142.2,-62.02 176.03,-40.69"/>
<polygon fill="grey" stroke="grey" stroke-width="2" points="177.65,-43.8 184.36,-35.6 174,-37.82 177.65,-43.8"/>
</g>
<!-- 2 -->
<g id="node3" class="node">
<title>2</title>
<path fill="none" stroke="#56d8c1" stroke-width="2" d="M306.12,-396C306.12,-396 249.62,-396 249.62,-396 243.62,-396 237.62,-390 237.62,-384 237.62,-384 237.62,-372 237.62,-372 237.62,-366 243.62,-360 249.62,-360 249.62,-360 306.12,-360 306.12,-360 312.12,-360 318.12,-366 318.12,-372 318.12,-372 318.12,-384 318.12,-384 318.12,-390 312.12,-396 306.12,-396"/>
<text text-anchor="middle" x="277.88" y="-374.88" font-family="sans" font-size="10.00">phyloseq_obj</text>
</g>
<!-- 2&#45;&gt;1 -->
<g id="edge5" class="edge">
<title>2&#45;&gt;1</title>
<path fill="none" stroke="grey" stroke-width="2" d="M252.29,-359.02C216.7,-334 152.08,-288.57 111.7,-260.19"/>
<polygon fill="grey" stroke="grey" stroke-width="2" points="113.92,-257.47 103.73,-254.58 109.9,-263.19 113.92,-257.47"/>
</g>
<!-- 3 -->
<g id="node4" class="node">
<title>3</title>
<path fill="none" stroke="#56c1d8" stroke-width="2" d="M237.5,-180C237.5,-180 96.25,-180 96.25,-180 90.25,-180 84.25,-174 84.25,-168 84.25,-168 84.25,-156 84.25,-156 84.25,-150 90.25,-144 96.25,-144 96.25,-144 237.5,-144 237.5,-144 243.5,-144 249.5,-150 249.5,-156 249.5,-156 249.5,-168 249.5,-168 249.5,-174 243.5,-180 237.5,-180"/>
<text text-anchor="middle" x="166.88" y="-158.88" font-family="sans" font-size="10.00">differential_analysis_maaslin2</text>
</g>
<!-- 2&#45;&gt;3 -->
<g id="edge6" class="edge">
<title>2&#45;&gt;3</title>
<path fill="none" stroke="grey" stroke-width="2" d="M268.6,-359.12C249.46,-322.22 205.43,-237.32 182.07,-192.29"/>
<polygon fill="grey" stroke="grey" stroke-width="2" points="185.3,-190.93 177.59,-183.66 179.09,-194.15 185.3,-190.93"/>
</g>
<!-- 4 -->
<g id="node5" class="node">
<title>4</title>
<path fill="none" stroke="#d85656" stroke-width="2" d="M320.62,-108C320.62,-108 207.12,-108 207.12,-108 201.12,-108 195.12,-102 195.12,-96 195.12,-96 195.12,-84 195.12,-84 195.12,-78 201.12,-72 207.12,-72 207.12,-72 320.62,-72 320.62,-72 326.62,-72 332.62,-78 332.62,-84 332.62,-84 332.62,-96 332.62,-96 332.62,-102 326.62,-108 320.62,-108"/>
<text text-anchor="middle" x="263.88" y="-86.88" font-family="sans" font-size="10.00">betadiversity_bubbleplot</text>
</g>
<!-- 2&#45;&gt;4 -->
<g id="edge7" class="edge">
<title>2&#45;&gt;4</title>
<path fill="none" stroke="grey" stroke-width="2" d="M277,-359.11C274.67,-311.56 268.31,-181.6 265.38,-121.83"/>
<polygon fill="grey" stroke="grey" stroke-width="2" points="268.88,-121.72 264.9,-111.91 261.89,-122.07 268.88,-121.72"/>
</g>
<!-- 8 -->
<g id="node9" class="node">
<title>8</title>
<path fill="none" stroke="#568ad8" stroke-width="2" d="M466.25,-324C466.25,-324 317.5,-324 317.5,-324 311.5,-324 305.5,-318 305.5,-312 305.5,-312 305.5,-300 305.5,-300 305.5,-294 311.5,-288 317.5,-288 317.5,-288 466.25,-288 466.25,-288 472.25,-288 478.25,-294 478.25,-300 478.25,-300 478.25,-312 478.25,-312 478.25,-318 472.25,-324 466.25,-324"/>
<text text-anchor="middle" x="391.88" y="-302.88" font-family="sans" font-size="10.00">differential_analysis_limma_rxn</text>
</g>
<!-- 2&#45;&gt;8 -->
<g id="edge12" class="edge">
<title>2&#45;&gt;8</title>
<path fill="none" stroke="grey" stroke-width="2" d="M306.94,-359.15C320.6,-350.76 337.12,-340.62 351.94,-331.52"/>
<polygon fill="grey" stroke="grey" stroke-width="2" points="353.6,-334.61 360.29,-326.4 349.93,-328.65 353.6,-334.61"/>
</g>
<!-- 9 -->
<g id="node10" class="node">
<title>9</title>
<path fill="none" stroke="#bed856" stroke-width="2" d="M577.12,-324C577.12,-324 508.62,-324 508.62,-324 502.62,-324 496.62,-318 496.62,-312 496.62,-312 496.62,-300 496.62,-300 496.62,-294 502.62,-288 508.62,-288 508.62,-288 577.12,-288 577.12,-288 583.12,-288 589.12,-294 589.12,-300 589.12,-300 589.12,-312 589.12,-312 589.12,-318 583.12,-324 577.12,-324"/>
<text text-anchor="middle" x="542.88" y="-302.88" font-family="sans" font-size="10.00">prep_cytoscape</text>
</g>
<!-- 2&#45;&gt;9 -->
<g id="edge13" class="edge">
<title>2&#45;&gt;9</title>
<path fill="none" stroke="grey" stroke-width="2" d="M318.87,-367.2C358.56,-357.58 420.71,-342.17 483.69,-324.82"/>
<polygon fill="grey" stroke="grey" stroke-width="2" points="484.25,-328.3 492.95,-322.25 482.38,-321.55 484.25,-328.3"/>
</g>
<!-- 3&#45;&gt;0 -->
<g id="edge2" class="edge">
<title>3&#45;&gt;0</title>
<path fill="none" stroke="grey" stroke-width="2" d="M169.12,-143.18C171.79,-124.9 177.02,-95.85 185.88,-72 188.89,-63.87 192.99,-55.46 197.15,-47.8"/>
<polygon fill="grey" stroke="grey" stroke-width="2" points="200.16,-49.58 202.09,-39.16 194.09,-46.11 200.16,-49.58"/>
</g>
<!-- 4&#45;&gt;0 -->
<g id="edge4" class="edge">
<title>4&#45;&gt;0</title>
<path fill="none" stroke="grey" stroke-width="2" d="M251.51,-71.34C246.44,-64.1 240.45,-55.53 234.79,-47.45"/>
<polygon fill="grey" stroke="grey" stroke-width="2" points="237.74,-45.57 229.14,-39.38 232.01,-49.58 237.74,-45.57"/>
</g>
<!-- 5 -->
<g id="node6" class="node">
<title>5</title>
<path fill="none" stroke="#59d856" stroke-width="2" d="M486.88,-108C486.88,-108 362.88,-108 362.88,-108 356.88,-108 350.88,-102 350.88,-96 350.88,-96 350.88,-84 350.88,-84 350.88,-78 356.88,-72 362.88,-72 362.88,-72 486.88,-72 486.88,-72 492.88,-72 498.88,-78 498.88,-84 498.88,-84 498.88,-96 498.88,-96 498.88,-102 492.88,-108 486.88,-108"/>
<text text-anchor="middle" x="424.88" y="-86.88" font-family="sans" font-size="10.00">cytoscape_enrichmentmap</text>
</g>
<!-- 5&#45;&gt;0 -->
<g id="edge1" class="edge">
<title>5&#45;&gt;0</title>
<path fill="none" stroke="grey" stroke-width="2" d="M371.07,-71.06C334.91,-59.01 288.04,-43.39 255.11,-32.41"/>
<polygon fill="grey" stroke="grey" stroke-width="2" points="256.26,-29.1 245.66,-29.26 254.04,-35.74 256.26,-29.1"/>
</g>
<!-- 6 -->
<g id="node7" class="node">
<title>6</title>
<path fill="none" stroke="#88d856" stroke-width="2" d="M439.5,-180C439.5,-180 400.25,-180 400.25,-180 394.25,-180 388.25,-174 388.25,-168 388.25,-168 388.25,-156 388.25,-156 388.25,-150 394.25,-144 400.25,-144 400.25,-144 439.5,-144 439.5,-144 445.5,-144 451.5,-150 451.5,-156 451.5,-156 451.5,-168 451.5,-168 451.5,-174 445.5,-180 439.5,-180"/>
<text text-anchor="middle" x="419.88" y="-158.88" font-family="sans" font-size="10.00">GSEA_run</text>
</g>
<!-- 6&#45;&gt;5 -->
<g id="edge9" class="edge">
<title>6&#45;&gt;5</title>
<path fill="none" stroke="grey" stroke-width="2" d="M421.14,-143.34C421.61,-136.75 422.16,-129.08 422.68,-121.67"/>
<polygon fill="grey" stroke="grey" stroke-width="2" points="426.16,-122.15 423.38,-111.92 419.18,-121.65 426.16,-122.15"/>
</g>
<!-- 7 -->
<g id="node8" class="node">
<title>7</title>
<path fill="none" stroke="#d8bc56" stroke-width="2" d="M440.62,-252C440.62,-252 375.12,-252 375.12,-252 369.12,-252 363.12,-246 363.12,-240 363.12,-240 363.12,-228 363.12,-228 363.12,-222 369.12,-216 375.12,-216 375.12,-216 440.62,-216 440.62,-216 446.62,-216 452.62,-222 452.62,-228 452.62,-228 452.62,-240 452.62,-240 452.62,-246 446.62,-252 440.62,-252"/>
<text text-anchor="middle" x="407.88" y="-230.88" font-family="sans" font-size="10.00">GSEA_rankings</text>
</g>
<!-- 7&#45;&gt;6 -->
<g id="edge10" class="edge">
<title>7&#45;&gt;6</title>
<path fill="none" stroke="grey" stroke-width="2" d="M410.9,-215.34C412.03,-208.75 413.35,-201.08 414.62,-193.67"/>
<polygon fill="grey" stroke="grey" stroke-width="2" points="418.05,-194.33 416.29,-183.89 411.16,-193.15 418.05,-194.33"/>
</g>
<!-- 8&#45;&gt;7 -->
<g id="edge11" class="edge">
<title>8&#45;&gt;7</title>
<path fill="none" stroke="grey" stroke-width="2" d="M395.91,-287.34C397.44,-280.67 399.22,-272.89 400.93,-265.39"/>
<polygon fill="grey" stroke="grey" stroke-width="2" points="404.29,-266.38 403.11,-255.85 397.47,-264.82 404.29,-266.38"/>
</g>
<!-- 9&#45;&gt;5 -->
<g id="edge8" class="edge">
<title>9&#45;&gt;5</title>
<path fill="none" stroke="grey" stroke-width="2" d="M534.72,-287.22C520.72,-257.13 490.72,-194.5 460.88,-144 456.03,-135.8 450.39,-127.15 445.04,-119.28"/>
<polygon fill="grey" stroke="grey" stroke-width="2" points="448.07,-117.51 439.5,-111.28 442.32,-121.49 448.07,-117.51"/>
</g>
</g>
</svg>
