<?xml version="1.0" encoding="UTF-8" standalone="no"?>
<!DOCTYPE svg PUBLIC "-//W3C//DTD SVG 1.1//EN"
 "http://www.w3.org/Graphics/SVG/1.1/DTD/svg11.dtd">
<!-- Generated by graphviz version 9.0.0 (20231125.0833)
 -->
<!-- Title: snakemake_dag Pages: 1 -->
<svg width="874pt" height="404pt"
 viewBox="0.00 0.00 873.99 404.00" xmlns="http://www.w3.org/2000/svg" xmlns:xlink="http://www.w3.org/1999/xlink">
<g id="graph0" class="graph" transform="scale(1 1) rotate(0) translate(4 400)">
<title>snakemake_dag</title>
<polygon fill="white" stroke="none" points="-4,4 -4,-400 869.99,-400 869.99,4 -4,4"/>
<!-- 0 -->
<g id="node1" class="node">
<title>0</title>
<path fill="none" stroke="#b6d856" stroke-width="2" d="M303.88,-36C303.88,-36 273.88,-36 273.88,-36 267.88,-36 261.88,-30 261.88,-24 261.88,-24 261.88,-12 261.88,-12 261.88,-6 267.88,0 273.88,0 273.88,0 303.88,0 303.88,0 309.88,0 315.88,-6 315.88,-12 315.88,-12 315.88,-24 315.88,-24 315.88,-30 309.88,-36 303.88,-36"/>
<text text-anchor="middle" x="288.88" y="-14.88" font-family="sans" font-size="10.00">all</text>
</g>
<!-- 1 -->
<g id="node2" class="node">
<title>1</title>
<path fill="none" stroke="#567bd8" stroke-width="2" d="M55.75,-180C55.75,-180 12,-180 12,-180 6,-180 0,-174 0,-168 0,-168 0,-156 0,-156 0,-150 6,-144 12,-144 12,-144 55.75,-144 55.75,-144 61.75,-144 67.75,-150 67.75,-156 67.75,-156 67.75,-168 67.75,-168 67.75,-174 61.75,-180 55.75,-180"/>
<text text-anchor="middle" x="33.88" y="-158.88" font-family="sans" font-size="10.00">bubbleplot</text>
</g>
<!-- 1&#45;&gt;0 -->
<g id="edge10" class="edge">
<title>1&#45;&gt;0</title>
<path fill="none" stroke="grey" stroke-width="2" d="M35.11,-143.21C37.49,-122.99 44.46,-90.41 64.88,-72 91.52,-47.96 191.03,-31.57 248.05,-23.92"/>
<polygon fill="grey" stroke="grey" stroke-width="2" points="248.42,-27.4 257.89,-22.64 247.52,-20.46 248.42,-27.4"/>
</g>
<!-- 2 -->
<g id="node3" class="node">
<title>2</title>
<path fill="none" stroke="#78d856" stroke-width="2" d="M418.12,-396C418.12,-396 361.62,-396 361.62,-396 355.62,-396 349.62,-390 349.62,-384 349.62,-384 349.62,-372 349.62,-372 349.62,-366 355.62,-360 361.62,-360 361.62,-360 418.12,-360 418.12,-360 424.12,-360 430.12,-366 430.12,-372 430.12,-372 430.12,-384 430.12,-384 430.12,-390 424.12,-396 418.12,-396"/>
<text text-anchor="middle" x="389.88" y="-374.88" font-family="sans" font-size="10.00">phyloseq_obj</text>
</g>
<!-- 2&#45;&gt;1 -->
<g id="edge11" class="edge">
<title>2&#45;&gt;1</title>
<path fill="none" stroke="grey" stroke-width="2" d="M348.76,-375.18C274.21,-371.06 120.79,-358.52 81.88,-324 44.63,-290.96 35.72,-230.4 33.91,-193.71"/>
<polygon fill="grey" stroke="grey" stroke-width="2" points="37.41,-193.84 33.61,-183.95 30.42,-194.05 37.41,-193.84"/>
</g>
<!-- 3 -->
<g id="node4" class="node">
<title>3</title>
<path fill="none" stroke="#d85656" stroke-width="2" d="M147.38,-108C147.38,-108 86.38,-108 86.38,-108 80.38,-108 74.38,-102 74.38,-96 74.38,-96 74.38,-84 74.38,-84 74.38,-78 80.38,-72 86.38,-72 86.38,-72 147.38,-72 147.38,-72 153.38,-72 159.38,-78 159.38,-84 159.38,-84 159.38,-96 159.38,-96 159.38,-102 153.38,-108 147.38,-108"/>
<text text-anchor="middle" x="116.88" y="-86.88" font-family="sans" font-size="10.00">bubbleplot_all</text>
</g>
<!-- 2&#45;&gt;3 -->
<g id="edge12" class="edge">
<title>2&#45;&gt;3</title>
<path fill="none" stroke="grey" stroke-width="2" d="M348.84,-372.94C288.64,-366.17 180.52,-350.61 152.88,-324 97.89,-271.07 103.91,-171.63 111.23,-121.51"/>
<polygon fill="grey" stroke="grey" stroke-width="2" points="114.67,-122.18 112.8,-111.76 107.76,-121.07 114.67,-122.18"/>
</g>
<!-- 4 -->
<g id="node5" class="node">
<title>4</title>
<path fill="none" stroke="#d87556" stroke-width="2" d="M192.12,-180C192.12,-180 135.62,-180 135.62,-180 129.62,-180 123.62,-174 123.62,-168 123.62,-168 123.62,-156 123.62,-156 123.62,-150 129.62,-144 135.62,-144 135.62,-144 192.12,-144 192.12,-144 198.12,-144 204.12,-150 204.12,-156 204.12,-156 204.12,-168 204.12,-168 204.12,-174 198.12,-180 192.12,-180"/>
<text text-anchor="middle" x="163.88" y="-158.88" font-family="sans" font-size="10.00">betadiversity</text>
</g>
<!-- 2&#45;&gt;4 -->
<g id="edge13" class="edge">
<title>2&#45;&gt;4</title>
<path fill="none" stroke="grey" stroke-width="2" d="M348.82,-376.4C303.95,-373.66 232.29,-362.9 185.88,-324 147.41,-291.76 147.75,-265.93 152.88,-216 153.64,-208.52 155.01,-200.54 156.52,-193.1"/>
<polygon fill="grey" stroke="grey" stroke-width="2" points="159.9,-194 158.64,-183.48 153.07,-192.49 159.9,-194"/>
</g>
<!-- 5 -->
<g id="node6" class="node">
<title>5</title>
<path fill="none" stroke="#d89556" stroke-width="2" d="M349.75,-324C349.75,-324 222,-324 222,-324 216,-324 210,-318 210,-312 210,-312 210,-300 210,-300 210,-294 216,-288 222,-288 222,-288 349.75,-288 349.75,-288 355.75,-288 361.75,-294 361.75,-300 361.75,-300 361.75,-312 361.75,-312 361.75,-318 355.75,-324 349.75,-324"/>
<text text-anchor="middle" x="285.88" y="-302.88" font-family="sans" font-size="10.00">differential_analysis_limma</text>
</g>
<!-- 2&#45;&gt;5 -->
<g id="edge14" class="edge">
<title>2&#45;&gt;5</title>
<path fill="none" stroke="grey" stroke-width="2" d="M363.36,-359.15C351.14,-350.93 336.42,-341.02 323.1,-332.06"/>
<polygon fill="grey" stroke="grey" stroke-width="2" points="325.1,-329.18 314.85,-326.5 321.19,-334.99 325.1,-329.18"/>
</g>
<!-- 6 -->
<g id="node7" class="node">
<title>6</title>
<path fill="none" stroke="#59d856" stroke-width="2" d="M616.25,-324C616.25,-324 467.5,-324 467.5,-324 461.5,-324 455.5,-318 455.5,-312 455.5,-312 455.5,-300 455.5,-300 455.5,-294 461.5,-288 467.5,-288 467.5,-288 616.25,-288 616.25,-288 622.25,-288 628.25,-294 628.25,-300 628.25,-300 628.25,-312 628.25,-312 628.25,-318 622.25,-324 616.25,-324"/>
<text text-anchor="middle" x="541.88" y="-302.88" font-family="sans" font-size="10.00">differential_analysis_limma_rxn</text>
</g>
<!-- 2&#45;&gt;6 -->
<g id="edge15" class="edge">
<title>2&#45;&gt;6</title>
<path fill="none" stroke="grey" stroke-width="2" d="M428.62,-359.15C447.67,-350.38 470.86,-339.71 491.28,-330.3"/>
<polygon fill="grey" stroke="grey" stroke-width="2" points="492.56,-333.56 500.18,-326.2 489.64,-327.2 492.56,-333.56"/>
</g>
<!-- 7 -->
<g id="node8" class="node">
<title>7</title>
<path fill="none" stroke="#56d8d8" stroke-width="2" d="M809.5,-252C809.5,-252 734.25,-252 734.25,-252 728.25,-252 722.25,-246 722.25,-240 722.25,-240 722.25,-228 722.25,-228 722.25,-222 728.25,-216 734.25,-216 734.25,-216 809.5,-216 809.5,-216 815.5,-216 821.5,-222 821.5,-228 821.5,-228 821.5,-240 821.5,-240 821.5,-246 815.5,-252 809.5,-252"/>
<text text-anchor="middle" x="771.88" y="-230.88" font-family="sans" font-size="10.00">maaslin2_figures</text>
</g>
<!-- 2&#45;&gt;7 -->
<g id="edge17" class="edge">
<title>2&#45;&gt;7</title>
<path fill="none" stroke="grey" stroke-width="2" d="M430.95,-375.43C540.02,-370.83 830.56,-355.7 858.88,-324 869.53,-312.07 866.71,-301.95 858.88,-288 852.31,-276.31 842.01,-266.9 830.76,-259.44"/>
<polygon fill="grey" stroke="grey" stroke-width="2" points="832.75,-256.56 822.37,-254.43 829.16,-262.57 832.75,-256.56"/>
</g>
<!-- 8 -->
<g id="node9" class="node">
<title>8</title>
<path fill="none" stroke="#97d856" stroke-width="2" d="M837.5,-324C837.5,-324 696.25,-324 696.25,-324 690.25,-324 684.25,-318 684.25,-312 684.25,-312 684.25,-300 684.25,-300 684.25,-294 690.25,-288 696.25,-288 696.25,-288 837.5,-288 837.5,-288 843.5,-288 849.5,-294 849.5,-300 849.5,-300 849.5,-312 849.5,-312 849.5,-318 843.5,-324 837.5,-324"/>
<text text-anchor="middle" x="766.88" y="-302.88" font-family="sans" font-size="10.00">differential_analysis_maaslin2</text>
</g>
<!-- 2&#45;&gt;8 -->
<g id="edge18" class="edge">
<title>2&#45;&gt;8</title>
<path fill="none" stroke="grey" stroke-width="2" d="M430.94,-369.38C488.06,-358.77 593.22,-339.24 670.72,-324.85"/>
<polygon fill="grey" stroke="grey" stroke-width="2" points="671.22,-328.32 680.41,-323.05 669.94,-321.44 671.22,-328.32"/>
</g>
<!-- 12 -->
<g id="node13" class="node">
<title>12</title>
<path fill="none" stroke="#56d89a" stroke-width="2" d="M442.12,-180C442.12,-180 373.62,-180 373.62,-180 367.62,-180 361.62,-174 361.62,-168 361.62,-168 361.62,-156 361.62,-156 361.62,-150 367.62,-144 373.62,-144 373.62,-144 442.12,-144 442.12,-144 448.12,-144 454.12,-150 454.12,-156 454.12,-156 454.12,-168 454.12,-168 454.12,-174 448.12,-180 442.12,-180"/>
<text text-anchor="middle" x="407.88" y="-158.88" font-family="sans" font-size="10.00">prep_cytoscape</text>
</g>
<!-- 2&#45;&gt;12 -->
<g id="edge23" class="edge">
<title>2&#45;&gt;12</title>
<path fill="none" stroke="grey" stroke-width="2" d="M393.8,-359.32C398.94,-335.2 407.66,-290.6 410.88,-252 412.21,-236.06 411.33,-231.99 410.88,-216 410.67,-208.72 410.3,-200.89 409.9,-193.54"/>
<polygon fill="grey" stroke="grey" stroke-width="2" points="413.4,-193.45 409.31,-183.68 406.41,-193.87 413.4,-193.45"/>
</g>
<!-- 13 -->
<g id="node14" class="node">
<title>13</title>
<path fill="none" stroke="#56b9d8" stroke-width="2" d="M230.12,-252C230.12,-252 173.62,-252 173.62,-252 167.62,-252 161.62,-246 161.62,-240 161.62,-240 161.62,-228 161.62,-228 161.62,-222 167.62,-216 173.62,-216 173.62,-216 230.12,-216 230.12,-216 236.12,-216 242.12,-222 242.12,-228 242.12,-228 242.12,-240 242.12,-240 242.12,-246 236.12,-252 230.12,-252"/>
<text text-anchor="middle" x="201.88" y="-230.88" font-family="sans" font-size="10.00">wgcna_micro</text>
</g>
<!-- 2&#45;&gt;13 -->
<g id="edge25" class="edge">
<title>2&#45;&gt;13</title>
<path fill="none" stroke="grey" stroke-width="2" d="M348.77,-371.31C298.74,-363.44 218.68,-347.49 200.88,-324 188.4,-307.55 189.22,-284.04 192.85,-265.31"/>
<polygon fill="grey" stroke="grey" stroke-width="2" points="196.25,-266.17 195.15,-255.63 189.43,-264.55 196.25,-266.17"/>
</g>
<!-- 14 -->
<g id="node15" class="node">
<title>14</title>
<path fill="none" stroke="#d8b456" stroke-width="2" d="M389.75,-252C389.75,-252 310,-252 310,-252 304,-252 298,-246 298,-240 298,-240 298,-228 298,-228 298,-222 304,-216 310,-216 310,-216 389.75,-216 389.75,-216 395.75,-216 401.75,-222 401.75,-228 401.75,-228 401.75,-240 401.75,-240 401.75,-246 395.75,-252 389.75,-252"/>
<text text-anchor="middle" x="349.88" y="-230.88" font-family="sans" font-size="10.00">wgcna_consensus</text>
</g>
<!-- 2&#45;&gt;14 -->
<g id="edge27" class="edge">
<title>2&#45;&gt;14</title>
<path fill="none" stroke="grey" stroke-width="2" d="M386.95,-359.05C383.79,-340.91 378.2,-312.2 370.88,-288 368.56,-280.35 365.62,-272.26 362.67,-264.76"/>
<polygon fill="grey" stroke="grey" stroke-width="2" points="365.99,-263.62 358.97,-255.69 359.51,-266.27 365.99,-263.62"/>
</g>
<!-- 15 -->
<g id="node16" class="node">
<title>15</title>
<path fill="none" stroke="#56d8b9" stroke-width="2" d="M692.25,-252C692.25,-252 615.5,-252 615.5,-252 609.5,-252 603.5,-246 603.5,-240 603.5,-240 603.5,-228 603.5,-228 603.5,-222 609.5,-216 615.5,-216 615.5,-216 692.25,-216 692.25,-216 698.25,-216 704.25,-222 704.25,-228 704.25,-228 704.25,-240 704.25,-240 704.25,-246 698.25,-252 692.25,-252"/>
<text text-anchor="middle" x="653.88" y="-230.88" font-family="sans" font-size="10.00">diffs_in_gsea_out</text>
</g>
<!-- 2&#45;&gt;15 -->
<g id="edge28" class="edge">
<title>2&#45;&gt;15</title>
<path fill="none" stroke="grey" stroke-width="2" d="M431.06,-373.6C493.72,-367.57 608.71,-352.81 636.88,-324 651.65,-308.88 655.6,-285.11 656.02,-265.94"/>
<polygon fill="grey" stroke="grey" stroke-width="2" points="659.52,-265.95 655.85,-256.01 652.52,-266.06 659.52,-265.95"/>
</g>
<!-- 3&#45;&gt;0 -->
<g id="edge1" class="edge">
<title>3&#45;&gt;0</title>
<path fill="none" stroke="grey" stroke-width="2" d="M160.28,-71.34C187.6,-60.22 222.59,-45.98 249.18,-35.16"/>
<polygon fill="grey" stroke="grey" stroke-width="2" points="250.36,-38.45 258.31,-31.44 247.72,-31.97 250.36,-38.45"/>
</g>
<!-- 4&#45;&gt;0 -->
<g id="edge2" class="edge">
<title>4&#45;&gt;0</title>
<path fill="none" stroke="grey" stroke-width="2" d="M172.06,-143.28C181.39,-124.29 197.94,-93.94 217.88,-72 227.36,-61.56 239.16,-51.8 250.4,-43.57"/>
<polygon fill="grey" stroke="grey" stroke-width="2" points="252.26,-46.54 258.43,-37.92 248.24,-40.81 252.26,-46.54"/>
</g>
<!-- 5&#45;&gt;0 -->
<g id="edge3" class="edge">
<title>5&#45;&gt;0</title>
<path fill="none" stroke="grey" stroke-width="2" d="M286.06,-287.11C286.56,-239.56 287.92,-109.6 288.55,-49.83"/>
<polygon fill="grey" stroke="grey" stroke-width="2" points="292.05,-49.95 288.66,-39.91 285.05,-49.87 292.05,-49.95"/>
</g>
<!-- 5&#45;&gt;13 -->
<g id="edge24" class="edge">
<title>5&#45;&gt;13</title>
<path fill="none" stroke="grey" stroke-width="2" d="M264.68,-287.34C255.1,-279.36 243.6,-269.77 233.06,-260.99"/>
<polygon fill="grey" stroke="grey" stroke-width="2" points="235.61,-258.55 225.68,-254.84 231.12,-263.93 235.61,-258.55"/>
</g>
<!-- 5&#45;&gt;14 -->
<g id="edge26" class="edge">
<title>5&#45;&gt;14</title>
<path fill="none" stroke="grey" stroke-width="2" d="M302.02,-287.34C308.94,-279.77 317.19,-270.75 324.87,-262.35"/>
<polygon fill="grey" stroke="grey" stroke-width="2" points="327.3,-264.88 331.47,-255.14 322.13,-260.15 327.3,-264.88"/>
</g>
<!-- 6&#45;&gt;0 -->
<g id="edge6" class="edge">
<title>6&#45;&gt;0</title>
<path fill="none" stroke="grey" stroke-width="2" d="M548.27,-287.11C551.56,-276.96 555.22,-263.93 556.88,-252 559.07,-236.15 558.19,-231.95 556.88,-216 551.1,-146.2 550.69,-111.53 492.88,-72 443.3,-38.1 373.44,-25.88 329.68,-21.48"/>
<polygon fill="grey" stroke="grey" stroke-width="2" points="330.01,-18 319.74,-20.6 329.39,-24.97 330.01,-18"/>
</g>
<!-- 11 -->
<g id="node12" class="node">
<title>11</title>
<path fill="none" stroke="#569ad8" stroke-width="2" d="M535.62,-252C535.62,-252 470.12,-252 470.12,-252 464.12,-252 458.12,-246 458.12,-240 458.12,-240 458.12,-228 458.12,-228 458.12,-222 464.12,-216 470.12,-216 470.12,-216 535.62,-216 535.62,-216 541.62,-216 547.62,-222 547.62,-228 547.62,-228 547.62,-240 547.62,-240 547.62,-246 541.62,-252 535.62,-252"/>
<text text-anchor="middle" x="502.88" y="-230.88" font-family="sans" font-size="10.00">GSEA_rankings</text>
</g>
<!-- 6&#45;&gt;11 -->
<g id="edge22" class="edge">
<title>6&#45;&gt;11</title>
<path fill="none" stroke="grey" stroke-width="2" d="M532.03,-287.34C528.14,-280.34 523.55,-272.12 519.19,-264.28"/>
<polygon fill="grey" stroke="grey" stroke-width="2" points="522.25,-262.58 514.32,-255.55 516.13,-265.99 522.25,-262.58"/>
</g>
<!-- 6&#45;&gt;15 -->
<g id="edge29" class="edge">
<title>6&#45;&gt;15</title>
<path fill="none" stroke="grey" stroke-width="2" d="M570.43,-287.15C583.85,-278.76 600.08,-268.62 614.64,-259.52"/>
<polygon fill="grey" stroke="grey" stroke-width="2" points="616.18,-262.68 622.81,-254.42 612.47,-256.75 616.18,-262.68"/>
</g>
<!-- 7&#45;&gt;0 -->
<g id="edge8" class="edge">
<title>7&#45;&gt;0</title>
<path fill="none" stroke="grey" stroke-width="2" d="M760.67,-215.12C738.21,-180.98 684.13,-106.81 617.88,-72 568.41,-46.02 406.3,-29.07 329.68,-22.32"/>
<polygon fill="grey" stroke="grey" stroke-width="2" points="330.13,-18.84 319.86,-21.47 329.53,-25.82 330.13,-18.84"/>
</g>
<!-- 8&#45;&gt;7 -->
<g id="edge16" class="edge">
<title>8&#45;&gt;7</title>
<path fill="none" stroke="grey" stroke-width="2" d="M768.14,-287.34C768.61,-280.75 769.16,-273.08 769.68,-265.67"/>
<polygon fill="grey" stroke="grey" stroke-width="2" points="773.16,-266.15 770.38,-255.92 766.18,-265.65 773.16,-266.15"/>
</g>
<!-- 9 -->
<g id="node10" class="node">
<title>9</title>
<path fill="none" stroke="#d6d856" stroke-width="2" d="M471.88,-108C471.88,-108 347.88,-108 347.88,-108 341.88,-108 335.88,-102 335.88,-96 335.88,-96 335.88,-84 335.88,-84 335.88,-78 341.88,-72 347.88,-72 347.88,-72 471.88,-72 471.88,-72 477.88,-72 483.88,-78 483.88,-84 483.88,-84 483.88,-96 483.88,-96 483.88,-102 477.88,-108 471.88,-108"/>
<text text-anchor="middle" x="409.88" y="-86.88" font-family="sans" font-size="10.00">cytoscape_enrichmentmap</text>
</g>
<!-- 9&#45;&gt;0 -->
<g id="edge5" class="edge">
<title>9&#45;&gt;0</title>
<path fill="none" stroke="grey" stroke-width="2" d="M379.03,-71.15C363.44,-62.14 344.36,-51.1 327.78,-41.51"/>
<polygon fill="grey" stroke="grey" stroke-width="2" points="329.8,-38.63 319.39,-36.65 326.29,-44.69 329.8,-38.63"/>
</g>
<!-- 10 -->
<g id="node11" class="node">
<title>10</title>
<path fill="none" stroke="#56d87b" stroke-width="2" d="M523.5,-180C523.5,-180 484.25,-180 484.25,-180 478.25,-180 472.25,-174 472.25,-168 472.25,-168 472.25,-156 472.25,-156 472.25,-150 478.25,-144 484.25,-144 484.25,-144 523.5,-144 523.5,-144 529.5,-144 535.5,-150 535.5,-156 535.5,-156 535.5,-168 535.5,-168 535.5,-174 529.5,-180 523.5,-180"/>
<text text-anchor="middle" x="503.88" y="-158.88" font-family="sans" font-size="10.00">GSEA_run</text>
</g>
<!-- 10&#45;&gt;9 -->
<g id="edge19" class="edge">
<title>10&#45;&gt;9</title>
<path fill="none" stroke="grey" stroke-width="2" d="M480.15,-143.34C469.22,-135.19 456.03,-125.37 444.05,-116.45"/>
<polygon fill="grey" stroke="grey" stroke-width="2" points="446.45,-113.88 436.34,-110.71 442.27,-119.49 446.45,-113.88"/>
</g>
<!-- 11&#45;&gt;10 -->
<g id="edge21" class="edge">
<title>11&#45;&gt;10</title>
<path fill="none" stroke="grey" stroke-width="2" d="M503.13,-215.34C503.22,-208.75 503.33,-201.08 503.44,-193.67"/>
<polygon fill="grey" stroke="grey" stroke-width="2" points="506.93,-193.98 503.58,-183.93 499.93,-193.88 506.93,-193.98"/>
</g>
<!-- 12&#45;&gt;9 -->
<g id="edge20" class="edge">
<title>12&#45;&gt;9</title>
<path fill="none" stroke="grey" stroke-width="2" d="M408.38,-143.34C408.57,-136.75 408.79,-129.08 409,-121.67"/>
<polygon fill="grey" stroke="grey" stroke-width="2" points="412.49,-122.02 409.28,-111.93 405.49,-121.82 412.49,-122.02"/>
</g>
<!-- 13&#45;&gt;0 -->
<g id="edge9" class="edge">
<title>13&#45;&gt;0</title>
<path fill="none" stroke="grey" stroke-width="2" d="M206.41,-215.09C214.4,-184.79 232.38,-121.87 255.88,-72 259.79,-63.7 264.72,-55.09 269.57,-47.29"/>
<polygon fill="grey" stroke="grey" stroke-width="2" points="272.37,-49.41 274.85,-39.11 266.49,-45.61 272.37,-49.41"/>
</g>
<!-- 14&#45;&gt;0 -->
<g id="edge4" class="edge">
<title>14&#45;&gt;0</title>
<path fill="none" stroke="grey" stroke-width="2" d="M344.78,-215.12C334.35,-178.54 310.47,-94.77 297.56,-49.45"/>
<polygon fill="grey" stroke="grey" stroke-width="2" points="300.94,-48.55 294.83,-39.89 294.2,-50.46 300.94,-48.55"/>
</g>
<!-- 15&#45;&gt;0 -->
<g id="edge7" class="edge">
<title>15&#45;&gt;0</title>
<path fill="none" stroke="grey" stroke-width="2" d="M652.33,-215.21C648.41,-181.55 634.89,-108.65 589.88,-72 550.56,-39.99 402.2,-26.23 329.52,-21.32"/>
<polygon fill="grey" stroke="grey" stroke-width="2" points="330.09,-17.85 319.89,-20.7 329.64,-24.83 330.09,-17.85"/>
</g>
</g>
</svg>
