<?xml version="1.0" encoding="UTF-8" standalone="no"?>
<!DOCTYPE svg PUBLIC "-//W3C//DTD SVG 1.1//EN"
 "http://www.w3.org/Graphics/SVG/1.1/DTD/svg11.dtd">
<!-- Generated by graphviz version 9.0.0 (20231125.0833)
 -->
<!-- Title: snakemake_dag Pages: 1 -->
<svg width="531pt" height="404pt"
 viewBox="0.00 0.00 531.12 404.00" xmlns="http://www.w3.org/2000/svg" xmlns:xlink="http://www.w3.org/1999/xlink">
<g id="graph0" class="graph" transform="scale(1 1) rotate(0) translate(4 400)">
<title>snakemake_dag</title>
<polygon fill="white" stroke="none" points="-4,4 -4,-400 527.12,-400 527.12,4 -4,4"/>
<!-- 0 -->
<g id="node1" class="node">
<title>0</title>
<path fill="none" stroke="#ced856" stroke-width="2" d="M173.88,-36C173.88,-36 143.88,-36 143.88,-36 137.88,-36 131.88,-30 131.88,-24 131.88,-24 131.88,-12 131.88,-12 131.88,-6 137.88,0 143.88,0 143.88,0 173.88,0 173.88,0 179.88,0 185.88,-6 185.88,-12 185.88,-12 185.88,-24 185.88,-24 185.88,-30 179.88,-36 173.88,-36"/>
<text text-anchor="middle" x="158.88" y="-14.88" font-family="sans" font-size="10.00">all</text>
</g>
<!-- 1 -->
<g id="node2" class="node">
<title>1</title>
<path fill="none" stroke="#d88556" stroke-width="2" d="M55.75,-252C55.75,-252 12,-252 12,-252 6,-252 0,-246 0,-240 0,-240 0,-228 0,-228 0,-222 6,-216 12,-216 12,-216 55.75,-216 55.75,-216 61.75,-216 67.75,-222 67.75,-228 67.75,-228 67.75,-240 67.75,-240 67.75,-246 61.75,-252 55.75,-252"/>
<text text-anchor="middle" x="33.88" y="-230.88" font-family="sans" font-size="10.00">bubbleplot</text>
</g>
<!-- 1&#45;&gt;0 -->
<g id="edge1" class="edge">
<title>1&#45;&gt;0</title>
<path fill="none" stroke="grey" stroke-width="2" d="M31.75,-215.01C28.94,-182.31 27.97,-112.74 63.88,-72 78.73,-55.15 100.29,-42.51 119.11,-33.82"/>
<polygon fill="grey" stroke="grey" stroke-width="2" points="120.44,-37.06 128.22,-29.87 117.65,-30.64 120.44,-37.06"/>
</g>
<!-- 2 -->
<g id="node3" class="node">
<title>2</title>
<path fill="none" stroke="#56d86b" stroke-width="2" d="M199.12,-396C199.12,-396 142.62,-396 142.62,-396 136.62,-396 130.62,-390 130.62,-384 130.62,-384 130.62,-372 130.62,-372 130.62,-366 136.62,-360 142.62,-360 142.62,-360 199.12,-360 199.12,-360 205.12,-360 211.12,-366 211.12,-372 211.12,-372 211.12,-384 211.12,-384 211.12,-390 205.12,-396 199.12,-396"/>
<text text-anchor="middle" x="170.88" y="-374.88" font-family="sans" font-size="10.00">phyloseq_obj</text>
</g>
<!-- 2&#45;&gt;1 -->
<g id="edge6" class="edge">
<title>2&#45;&gt;1</title>
<path fill="none" stroke="grey" stroke-width="2" d="M133.26,-359.19C117.03,-350.23 98.66,-338.24 84.88,-324 68.19,-306.77 54.94,-283.03 46.13,-264.4"/>
<polygon fill="grey" stroke="grey" stroke-width="2" points="49.42,-263.18 42.12,-255.5 43.04,-266.06 49.42,-263.18"/>
</g>
<!-- 3 -->
<g id="node4" class="node">
<title>3</title>
<path fill="none" stroke="#56b1d8" stroke-width="2" d="M112.12,-180C112.12,-180 55.62,-180 55.62,-180 49.62,-180 43.62,-174 43.62,-168 43.62,-168 43.62,-156 43.62,-156 43.62,-150 49.62,-144 55.62,-144 55.62,-144 112.12,-144 112.12,-144 118.12,-144 124.12,-150 124.12,-156 124.12,-156 124.12,-168 124.12,-168 124.12,-174 118.12,-180 112.12,-180"/>
<text text-anchor="middle" x="83.88" y="-158.88" font-family="sans" font-size="10.00">betadiversity</text>
</g>
<!-- 2&#45;&gt;3 -->
<g id="edge7" class="edge">
<title>2&#45;&gt;3</title>
<path fill="none" stroke="grey" stroke-width="2" d="M158.49,-359.44C151.78,-349.39 143.7,-336.36 137.88,-324 117.22,-280.17 100.83,-226.25 91.74,-193.27"/>
<polygon fill="grey" stroke="grey" stroke-width="2" points="95.18,-192.58 89.2,-183.84 88.42,-194.4 95.18,-192.58"/>
</g>
<!-- 4 -->
<g id="node5" class="node">
<title>4</title>
<path fill="none" stroke="#5682d8" stroke-width="2" d="M222.75,-108C222.75,-108 95,-108 95,-108 89,-108 83,-102 83,-96 83,-96 83,-84 83,-84 83,-78 89,-72 95,-72 95,-72 222.75,-72 222.75,-72 228.75,-72 234.75,-78 234.75,-84 234.75,-84 234.75,-96 234.75,-96 234.75,-102 228.75,-108 222.75,-108"/>
<text text-anchor="middle" x="158.88" y="-86.88" font-family="sans" font-size="10.00">differential_analysis_limma</text>
</g>
<!-- 2&#45;&gt;4 -->
<g id="edge8" class="edge">
<title>2&#45;&gt;4</title>
<path fill="none" stroke="grey" stroke-width="2" d="M170.12,-359.11C168.13,-311.56 162.68,-181.6 160.17,-121.83"/>
<polygon fill="grey" stroke="grey" stroke-width="2" points="163.67,-121.75 159.75,-111.91 156.67,-122.05 163.67,-121.75"/>
</g>
<!-- 5 -->
<g id="node6" class="node">
<title>5</title>
<path fill="none" stroke="#d8b456" stroke-width="2" d="M333.5,-252C333.5,-252 192.25,-252 192.25,-252 186.25,-252 180.25,-246 180.25,-240 180.25,-240 180.25,-228 180.25,-228 180.25,-222 186.25,-216 192.25,-216 192.25,-216 333.5,-216 333.5,-216 339.5,-216 345.5,-222 345.5,-228 345.5,-228 345.5,-240 345.5,-240 345.5,-246 339.5,-252 333.5,-252"/>
<text text-anchor="middle" x="262.88" y="-230.88" font-family="sans" font-size="10.00">differential_analysis_maaslin2</text>
</g>
<!-- 2&#45;&gt;5 -->
<g id="edge9" class="edge">
<title>2&#45;&gt;5</title>
<path fill="none" stroke="grey" stroke-width="2" d="M182.16,-359.22C193.6,-341.22 211.87,-312.61 227.88,-288 233.11,-279.96 238.82,-271.26 244.09,-263.28"/>
<polygon fill="grey" stroke="grey" stroke-width="2" points="246.87,-265.42 249.48,-255.15 241.04,-261.56 246.87,-265.42"/>
</g>
<!-- 9 -->
<g id="node10" class="node">
<title>9</title>
<path fill="none" stroke="#56d89a" stroke-width="2" d="M397.25,-324C397.25,-324 248.5,-324 248.5,-324 242.5,-324 236.5,-318 236.5,-312 236.5,-312 236.5,-300 236.5,-300 236.5,-294 242.5,-288 248.5,-288 248.5,-288 397.25,-288 397.25,-288 403.25,-288 409.25,-294 409.25,-300 409.25,-300 409.25,-312 409.25,-312 409.25,-318 403.25,-324 397.25,-324"/>
<text text-anchor="middle" x="322.88" y="-302.88" font-family="sans" font-size="10.00">differential_analysis_limma_rxn</text>
</g>
<!-- 2&#45;&gt;9 -->
<g id="edge14" class="edge">
<title>2&#45;&gt;9</title>
<path fill="none" stroke="grey" stroke-width="2" d="M209.62,-359.15C228.67,-350.38 251.86,-339.71 272.28,-330.3"/>
<polygon fill="grey" stroke="grey" stroke-width="2" points="273.56,-333.56 281.18,-326.2 270.64,-327.2 273.56,-333.56"/>
</g>
<!-- 10 -->
<g id="node11" class="node">
<title>10</title>
<path fill="none" stroke="#56d8c9" stroke-width="2" d="M511.12,-324C511.12,-324 442.62,-324 442.62,-324 436.62,-324 430.62,-318 430.62,-312 430.62,-312 430.62,-300 430.62,-300 430.62,-294 436.62,-288 442.62,-288 442.62,-288 511.12,-288 511.12,-288 517.12,-288 523.12,-294 523.12,-300 523.12,-300 523.12,-312 523.12,-312 523.12,-318 517.12,-324 511.12,-324"/>
<text text-anchor="middle" x="476.88" y="-302.88" font-family="sans" font-size="10.00">prep_cytoscape</text>
</g>
<!-- 2&#45;&gt;10 -->
<g id="edge15" class="edge">
<title>2&#45;&gt;10</title>
<path fill="none" stroke="grey" stroke-width="2" d="M211.72,-369.14C258.47,-359.94 337.57,-343.78 417.61,-323.93"/>
<polygon fill="grey" stroke="grey" stroke-width="2" points="418.15,-327.4 427,-321.58 416.45,-320.61 418.15,-327.4"/>
</g>
<!-- 3&#45;&gt;0 -->
<g id="edge4" class="edge">
<title>3&#45;&gt;0</title>
<path fill="none" stroke="grey" stroke-width="2" d="M76.01,-143.07C68.99,-124.18 61.58,-94.16 73.88,-72 83.75,-54.21 102.35,-41.61 119.64,-33.17"/>
<polygon fill="grey" stroke="grey" stroke-width="2" points="120.81,-36.49 128.52,-29.22 117.96,-30.09 120.81,-36.49"/>
</g>
<!-- 4&#45;&gt;0 -->
<g id="edge5" class="edge">
<title>4&#45;&gt;0</title>
<path fill="none" stroke="grey" stroke-width="2" d="M158.88,-71.34C158.88,-64.75 158.88,-57.08 158.88,-49.67"/>
<polygon fill="grey" stroke="grey" stroke-width="2" points="162.38,-49.93 158.88,-39.93 155.38,-49.93 162.38,-49.93"/>
</g>
<!-- 5&#45;&gt;0 -->
<g id="edge2" class="edge">
<title>5&#45;&gt;0</title>
<path fill="none" stroke="grey" stroke-width="2" d="M265.45,-215.42C269.11,-183.97 272.52,-117.15 243.88,-72 233.13,-55.06 214.8,-42.62 197.91,-34.07"/>
<polygon fill="grey" stroke="grey" stroke-width="2" points="199.84,-31.11 189.3,-30.05 196.88,-37.45 199.84,-31.11"/>
</g>
<!-- 6 -->
<g id="node7" class="node">
<title>6</title>
<path fill="none" stroke="#70d856" stroke-width="2" d="M469.88,-108C469.88,-108 345.88,-108 345.88,-108 339.88,-108 333.88,-102 333.88,-96 333.88,-96 333.88,-84 333.88,-84 333.88,-78 339.88,-72 345.88,-72 345.88,-72 469.88,-72 469.88,-72 475.88,-72 481.88,-78 481.88,-84 481.88,-84 481.88,-96 481.88,-96 481.88,-102 475.88,-108 469.88,-108"/>
<text text-anchor="middle" x="407.88" y="-86.88" font-family="sans" font-size="10.00">cytoscape_enrichmentmap</text>
</g>
<!-- 6&#45;&gt;0 -->
<g id="edge3" class="edge">
<title>6&#45;&gt;0</title>
<path fill="none" stroke="grey" stroke-width="2" d="M344.07,-71.06C298.38,-58.22 238.23,-41.31 199.07,-30.3"/>
<polygon fill="grey" stroke="grey" stroke-width="2" points="200.14,-26.96 189.56,-27.63 198.24,-33.7 200.14,-26.96"/>
</g>
<!-- 7 -->
<g id="node8" class="node">
<title>7</title>
<path fill="none" stroke="#9fd856" stroke-width="2" d="M427.5,-180C427.5,-180 388.25,-180 388.25,-180 382.25,-180 376.25,-174 376.25,-168 376.25,-168 376.25,-156 376.25,-156 376.25,-150 382.25,-144 388.25,-144 388.25,-144 427.5,-144 427.5,-144 433.5,-144 439.5,-150 439.5,-156 439.5,-156 439.5,-168 439.5,-168 439.5,-174 433.5,-180 427.5,-180"/>
<text text-anchor="middle" x="407.88" y="-158.88" font-family="sans" font-size="10.00">GSEA_run</text>
</g>
<!-- 7&#45;&gt;6 -->
<g id="edge11" class="edge">
<title>7&#45;&gt;6</title>
<path fill="none" stroke="grey" stroke-width="2" d="M407.88,-143.34C407.88,-136.75 407.88,-129.08 407.88,-121.67"/>
<polygon fill="grey" stroke="grey" stroke-width="2" points="411.38,-121.93 407.88,-111.93 404.38,-121.93 411.38,-121.93"/>
</g>
<!-- 8 -->
<g id="node9" class="node">
<title>8</title>
<path fill="none" stroke="#d85656" stroke-width="2" d="M440.62,-252C440.62,-252 375.12,-252 375.12,-252 369.12,-252 363.12,-246 363.12,-240 363.12,-240 363.12,-228 363.12,-228 363.12,-222 369.12,-216 375.12,-216 375.12,-216 440.62,-216 440.62,-216 446.62,-216 452.62,-222 452.62,-228 452.62,-228 452.62,-240 452.62,-240 452.62,-246 446.62,-252 440.62,-252"/>
<text text-anchor="middle" x="407.88" y="-230.88" font-family="sans" font-size="10.00">GSEA_rankings</text>
</g>
<!-- 8&#45;&gt;7 -->
<g id="edge12" class="edge">
<title>8&#45;&gt;7</title>
<path fill="none" stroke="grey" stroke-width="2" d="M407.88,-215.34C407.88,-208.75 407.88,-201.08 407.88,-193.67"/>
<polygon fill="grey" stroke="grey" stroke-width="2" points="411.38,-193.93 407.88,-183.93 404.38,-193.93 411.38,-193.93"/>
</g>
<!-- 9&#45;&gt;8 -->
<g id="edge13" class="edge">
<title>9&#45;&gt;8</title>
<path fill="none" stroke="grey" stroke-width="2" d="M344.32,-287.34C354.01,-279.36 365.66,-269.77 376.32,-260.99"/>
<polygon fill="grey" stroke="grey" stroke-width="2" points="378.31,-263.88 383.8,-254.83 373.86,-258.48 378.31,-263.88"/>
</g>
<!-- 10&#45;&gt;6 -->
<g id="edge10" class="edge">
<title>10&#45;&gt;6</title>
<path fill="none" stroke="grey" stroke-width="2" d="M476.59,-287.27C475.49,-256.72 470.55,-192.73 448.88,-144 444.91,-135.08 439.14,-126.32 433.18,-118.57"/>
<polygon fill="grey" stroke="grey" stroke-width="2" points="436.05,-116.55 427,-111.04 430.64,-120.99 436.05,-116.55"/>
</g>
</g>
</svg>
