<?xml version="1.0" encoding="UTF-8" standalone="no"?>
<!DOCTYPE svg PUBLIC "-//W3C//DTD SVG 1.1//EN"
 "http://www.w3.org/Graphics/SVG/1.1/DTD/svg11.dtd">
<!-- Generated by graphviz version 9.0.0 (20231125.0833)
 -->
<!-- Title: snakemake_dag Pages: 1 -->
<svg width="655pt" height="404pt"
 viewBox="0.00 0.00 655.12 404.00" xmlns="http://www.w3.org/2000/svg" xmlns:xlink="http://www.w3.org/1999/xlink">
<g id="graph0" class="graph" transform="scale(1 1) rotate(0) translate(4 400)">
<title>snakemake_dag</title>
<polygon fill="white" stroke="none" points="-4,4 -4,-400 651.12,-400 651.12,4 -4,4"/>
<!-- 0 -->
<g id="node1" class="node">
<title>0</title>
<path fill="none" stroke="#b6d856" stroke-width="2" d="M231.88,-36C231.88,-36 201.88,-36 201.88,-36 195.88,-36 189.88,-30 189.88,-24 189.88,-24 189.88,-12 189.88,-12 189.88,-6 195.88,0 201.88,0 201.88,0 231.88,0 231.88,0 237.88,0 243.88,-6 243.88,-12 243.88,-12 243.88,-24 243.88,-24 243.88,-30 237.88,-36 231.88,-36"/>
<text text-anchor="middle" x="216.88" y="-14.88" font-family="sans" font-size="10.00">all</text>
</g>
<!-- 1 -->
<g id="node2" class="node">
<title>1</title>
<path fill="none" stroke="#56d86b" stroke-width="2" d="M55.75,-180C55.75,-180 12,-180 12,-180 6,-180 0,-174 0,-168 0,-168 0,-156 0,-156 0,-150 6,-144 12,-144 12,-144 55.75,-144 55.75,-144 61.75,-144 67.75,-150 67.75,-156 67.75,-156 67.75,-168 67.75,-168 67.75,-174 61.75,-180 55.75,-180"/>
<text text-anchor="middle" x="33.88" y="-158.88" font-family="sans" font-size="10.00">bubbleplot</text>
</g>
<!-- 1&#45;&gt;0 -->
<g id="edge4" class="edge">
<title>1&#45;&gt;0</title>
<path fill="none" stroke="grey" stroke-width="2" d="M32.06,-143.35C31.04,-123.57 32.57,-91.7 49.88,-72 81.66,-35.81 138.01,-24.11 176.38,-20.46"/>
<polygon fill="grey" stroke="grey" stroke-width="2" points="176.41,-23.96 186.11,-19.7 175.87,-16.98 176.41,-23.96"/>
</g>
<!-- 2 -->
<g id="node3" class="node">
<title>2</title>
<path fill="none" stroke="#68d856" stroke-width="2" d="M368.12,-396C368.12,-396 311.62,-396 311.62,-396 305.62,-396 299.62,-390 299.62,-384 299.62,-384 299.62,-372 299.62,-372 299.62,-366 305.62,-360 311.62,-360 311.62,-360 368.12,-360 368.12,-360 374.12,-360 380.12,-366 380.12,-372 380.12,-372 380.12,-384 380.12,-384 380.12,-390 374.12,-396 368.12,-396"/>
<text text-anchor="middle" x="339.88" y="-374.88" font-family="sans" font-size="10.00">phyloseq_obj</text>
</g>
<!-- 2&#45;&gt;1 -->
<g id="edge8" class="edge">
<title>2&#45;&gt;1</title>
<path fill="none" stroke="grey" stroke-width="2" d="M298.82,-373.47C234.94,-367.19 115.88,-351.99 84.88,-324 47.73,-290.46 37.45,-230.07 34.72,-193.54"/>
<polygon fill="grey" stroke="grey" stroke-width="2" points="38.23,-193.63 34.17,-183.84 31.24,-194.02 38.23,-193.63"/>
</g>
<!-- 3 -->
<g id="node4" class="node">
<title>3</title>
<path fill="none" stroke="#8fd856" stroke-width="2" d="M127.12,-108C127.12,-108 70.62,-108 70.62,-108 64.62,-108 58.62,-102 58.62,-96 58.62,-96 58.62,-84 58.62,-84 58.62,-78 64.62,-72 70.62,-72 70.62,-72 127.12,-72 127.12,-72 133.12,-72 139.12,-78 139.12,-84 139.12,-84 139.12,-96 139.12,-96 139.12,-102 133.12,-108 127.12,-108"/>
<text text-anchor="middle" x="98.88" y="-86.88" font-family="sans" font-size="10.00">betadiversity</text>
</g>
<!-- 2&#45;&gt;3 -->
<g id="edge9" class="edge">
<title>2&#45;&gt;3</title>
<path fill="none" stroke="grey" stroke-width="2" d="M298.97,-371.99C244.9,-364.49 153.89,-348.55 131.88,-324 81.37,-267.68 86.66,-170.94 93.46,-121.71"/>
<polygon fill="grey" stroke="grey" stroke-width="2" points="96.91,-122.29 94.96,-111.88 89.99,-121.24 96.91,-122.29"/>
</g>
<!-- 4 -->
<g id="node5" class="node">
<title>4</title>
<path fill="none" stroke="#d85656" stroke-width="2" d="M280.75,-324C280.75,-324 153,-324 153,-324 147,-324 141,-318 141,-312 141,-312 141,-300 141,-300 141,-294 147,-288 153,-288 153,-288 280.75,-288 280.75,-288 286.75,-288 292.75,-294 292.75,-300 292.75,-300 292.75,-312 292.75,-312 292.75,-318 286.75,-324 280.75,-324"/>
<text text-anchor="middle" x="216.88" y="-302.88" font-family="sans" font-size="10.00">differential_analysis_limma</text>
</g>
<!-- 2&#45;&gt;4 -->
<g id="edge10" class="edge">
<title>2&#45;&gt;4</title>
<path fill="none" stroke="grey" stroke-width="2" d="M308.52,-359.15C293.63,-350.68 275.6,-340.42 259.49,-331.25"/>
<polygon fill="grey" stroke="grey" stroke-width="2" points="261.23,-328.21 250.8,-326.31 257.76,-334.3 261.23,-328.21"/>
</g>
<!-- 5 -->
<g id="node6" class="node">
<title>5</title>
<path fill="none" stroke="#56d8b9" stroke-width="2" d="M440.5,-252C440.5,-252 299.25,-252 299.25,-252 293.25,-252 287.25,-246 287.25,-240 287.25,-240 287.25,-228 287.25,-228 287.25,-222 293.25,-216 299.25,-216 299.25,-216 440.5,-216 440.5,-216 446.5,-216 452.5,-222 452.5,-228 452.5,-228 452.5,-240 452.5,-240 452.5,-246 446.5,-252 440.5,-252"/>
<text text-anchor="middle" x="369.88" y="-230.88" font-family="sans" font-size="10.00">differential_analysis_maaslin2</text>
</g>
<!-- 2&#45;&gt;5 -->
<g id="edge11" class="edge">
<title>2&#45;&gt;5</title>
<path fill="none" stroke="grey" stroke-width="2" d="M343.67,-359.02C348.66,-335.44 357.47,-293.73 363.48,-265.25"/>
<polygon fill="grey" stroke="grey" stroke-width="2" points="366.84,-266.31 365.48,-255.8 359.99,-264.86 366.84,-266.31"/>
</g>
<!-- 9 -->
<g id="node10" class="node">
<title>9</title>
<path fill="none" stroke="#d8cb56" stroke-width="2" d="M548.25,-324C548.25,-324 399.5,-324 399.5,-324 393.5,-324 387.5,-318 387.5,-312 387.5,-312 387.5,-300 387.5,-300 387.5,-294 393.5,-288 399.5,-288 399.5,-288 548.25,-288 548.25,-288 554.25,-288 560.25,-294 560.25,-300 560.25,-300 560.25,-312 560.25,-312 560.25,-318 554.25,-324 548.25,-324"/>
<text text-anchor="middle" x="473.88" y="-302.88" font-family="sans" font-size="10.00">differential_analysis_limma_rxn</text>
</g>
<!-- 2&#45;&gt;9 -->
<g id="edge16" class="edge">
<title>2&#45;&gt;9</title>
<path fill="none" stroke="grey" stroke-width="2" d="M374.04,-359.15C390.57,-350.52 410.66,-340.02 428.46,-330.72"/>
<polygon fill="grey" stroke="grey" stroke-width="2" points="429.85,-333.95 437.09,-326.21 426.61,-327.74 429.85,-333.95"/>
</g>
<!-- 10 -->
<g id="node11" class="node">
<title>10</title>
<path fill="none" stroke="#d87d56" stroke-width="2" d="M586.12,-180C586.12,-180 517.62,-180 517.62,-180 511.62,-180 505.62,-174 505.62,-168 505.62,-168 505.62,-156 505.62,-156 505.62,-150 511.62,-144 517.62,-144 517.62,-144 586.12,-144 586.12,-144 592.12,-144 598.12,-150 598.12,-156 598.12,-156 598.12,-168 598.12,-168 598.12,-174 592.12,-180 586.12,-180"/>
<text text-anchor="middle" x="551.88" y="-158.88" font-family="sans" font-size="10.00">prep_cytoscape</text>
</g>
<!-- 2&#45;&gt;10 -->
<g id="edge17" class="edge">
<title>2&#45;&gt;10</title>
<path fill="none" stroke="grey" stroke-width="2" d="M380.91,-373.51C440.35,-367.51 545.83,-352.99 568.88,-324 598.55,-286.67 581.42,-228.1 566.5,-192.85"/>
<polygon fill="grey" stroke="grey" stroke-width="2" points="569.71,-191.45 562.43,-183.76 563.32,-194.31 569.71,-191.45"/>
</g>
<!-- 11 -->
<g id="node12" class="node">
<title>11</title>
<path fill="none" stroke="#567bd8" stroke-width="2" d="M635.12,-108C635.12,-108 578.62,-108 578.62,-108 572.62,-108 566.62,-102 566.62,-96 566.62,-96 566.62,-84 566.62,-84 566.62,-78 572.62,-72 578.62,-72 578.62,-72 635.12,-72 635.12,-72 641.12,-72 647.12,-78 647.12,-84 647.12,-84 647.12,-96 647.12,-96 647.12,-102 641.12,-108 635.12,-108"/>
<text text-anchor="middle" x="606.88" y="-86.88" font-family="sans" font-size="10.00">wgcna_micro</text>
</g>
<!-- 2&#45;&gt;11 -->
<g id="edge18" class="edge">
<title>2&#45;&gt;11</title>
<path fill="none" stroke="grey" stroke-width="2" d="M380.96,-374.05C444.76,-368.57 563.24,-354.47 590.88,-324 641.42,-268.27 627.1,-170.92 615.39,-121.56"/>
<polygon fill="grey" stroke="grey" stroke-width="2" points="618.8,-120.76 612.95,-111.92 612.01,-122.47 618.8,-120.76"/>
</g>
<!-- 12 -->
<g id="node13" class="node">
<title>12</title>
<path fill="none" stroke="#d8a456" stroke-width="2" d="M256.75,-252C256.75,-252 177,-252 177,-252 171,-252 165,-246 165,-240 165,-240 165,-228 165,-228 165,-222 171,-216 177,-216 177,-216 256.75,-216 256.75,-216 262.75,-216 268.75,-222 268.75,-228 268.75,-228 268.75,-240 268.75,-240 268.75,-246 262.75,-252 256.75,-252"/>
<text text-anchor="middle" x="216.88" y="-230.88" font-family="sans" font-size="10.00">wgcna_consensus</text>
</g>
<!-- 2&#45;&gt;12 -->
<g id="edge20" class="edge">
<title>2&#45;&gt;12</title>
<path fill="none" stroke="grey" stroke-width="2" d="M335.72,-359.24C330.48,-339.94 319.91,-309.05 301.88,-288 292.25,-276.76 279.63,-267.14 267.08,-259.3"/>
<polygon fill="grey" stroke="grey" stroke-width="2" points="269.14,-256.46 258.75,-254.41 265.6,-262.49 269.14,-256.46"/>
</g>
<!-- 3&#45;&gt;0 -->
<g id="edge3" class="edge">
<title>3&#45;&gt;0</title>
<path fill="none" stroke="grey" stroke-width="2" d="M128.96,-71.15C143.9,-62.29 162.14,-51.47 178.12,-41.99"/>
<polygon fill="grey" stroke="grey" stroke-width="2" points="179.86,-45.03 186.67,-36.92 176.28,-39.01 179.86,-45.03"/>
</g>
<!-- 4&#45;&gt;0 -->
<g id="edge1" class="edge">
<title>4&#45;&gt;0</title>
<path fill="none" stroke="grey" stroke-width="2" d="M186.87,-287.13C174.88,-278.23 162.39,-266.3 155.88,-252 124.04,-182.17 169.2,-92.72 197.32,-47.66"/>
<polygon fill="grey" stroke="grey" stroke-width="2" points="200.11,-49.8 202.58,-39.49 194.22,-46.01 200.11,-49.8"/>
</g>
<!-- 4&#45;&gt;12 -->
<g id="edge19" class="edge">
<title>4&#45;&gt;12</title>
<path fill="none" stroke="grey" stroke-width="2" d="M216.88,-287.34C216.88,-280.75 216.88,-273.08 216.88,-265.67"/>
<polygon fill="grey" stroke="grey" stroke-width="2" points="220.38,-265.93 216.88,-255.93 213.38,-265.93 220.38,-265.93"/>
</g>
<!-- 5&#45;&gt;0 -->
<g id="edge6" class="edge">
<title>5&#45;&gt;0</title>
<path fill="none" stroke="grey" stroke-width="2" d="M357.09,-215.12C330.54,-177.99 269.24,-92.24 237.2,-47.43"/>
<polygon fill="grey" stroke="grey" stroke-width="2" points="240.15,-45.54 231.49,-39.44 234.46,-49.61 240.15,-45.54"/>
</g>
<!-- 6 -->
<g id="node7" class="node">
<title>6</title>
<path fill="none" stroke="#56d892" stroke-width="2" d="M517.88,-108C517.88,-108 393.88,-108 393.88,-108 387.88,-108 381.88,-102 381.88,-96 381.88,-96 381.88,-84 381.88,-84 381.88,-78 387.88,-72 393.88,-72 393.88,-72 517.88,-72 517.88,-72 523.88,-72 529.88,-78 529.88,-84 529.88,-84 529.88,-96 529.88,-96 529.88,-102 523.88,-108 517.88,-108"/>
<text text-anchor="middle" x="455.88" y="-86.88" font-family="sans" font-size="10.00">cytoscape_enrichmentmap</text>
</g>
<!-- 6&#45;&gt;0 -->
<g id="edge5" class="edge">
<title>6&#45;&gt;0</title>
<path fill="none" stroke="grey" stroke-width="2" d="M394.64,-71.06C351.46,-58.42 294.85,-41.84 257.23,-30.82"/>
<polygon fill="grey" stroke="grey" stroke-width="2" points="258.26,-27.47 247.68,-28.02 256.3,-34.19 258.26,-27.47"/>
</g>
<!-- 7 -->
<g id="node8" class="node">
<title>7</title>
<path fill="none" stroke="#56d0d8" stroke-width="2" d="M475.5,-180C475.5,-180 436.25,-180 436.25,-180 430.25,-180 424.25,-174 424.25,-168 424.25,-168 424.25,-156 424.25,-156 424.25,-150 430.25,-144 436.25,-144 436.25,-144 475.5,-144 475.5,-144 481.5,-144 487.5,-150 487.5,-156 487.5,-156 487.5,-168 487.5,-168 487.5,-174 481.5,-180 475.5,-180"/>
<text text-anchor="middle" x="455.88" y="-158.88" font-family="sans" font-size="10.00">GSEA_run</text>
</g>
<!-- 7&#45;&gt;6 -->
<g id="edge12" class="edge">
<title>7&#45;&gt;6</title>
<path fill="none" stroke="grey" stroke-width="2" d="M455.88,-143.34C455.88,-136.75 455.88,-129.08 455.88,-121.67"/>
<polygon fill="grey" stroke="grey" stroke-width="2" points="459.38,-121.93 455.88,-111.93 452.38,-121.93 459.38,-121.93"/>
</g>
<!-- 8 -->
<g id="node9" class="node">
<title>8</title>
<path fill="none" stroke="#56a9d8" stroke-width="2" d="M547.62,-252C547.62,-252 482.12,-252 482.12,-252 476.12,-252 470.12,-246 470.12,-240 470.12,-240 470.12,-228 470.12,-228 470.12,-222 476.12,-216 482.12,-216 482.12,-216 547.62,-216 547.62,-216 553.62,-216 559.62,-222 559.62,-228 559.62,-228 559.62,-240 559.62,-240 559.62,-246 553.62,-252 547.62,-252"/>
<text text-anchor="middle" x="514.88" y="-230.88" font-family="sans" font-size="10.00">GSEA_rankings</text>
</g>
<!-- 8&#45;&gt;7 -->
<g id="edge14" class="edge">
<title>8&#45;&gt;7</title>
<path fill="none" stroke="grey" stroke-width="2" d="M499.99,-215.34C493.68,-207.85 486.17,-198.95 479.16,-190.63"/>
<polygon fill="grey" stroke="grey" stroke-width="2" points="482.04,-188.61 472.91,-183.22 476.68,-193.12 482.04,-188.61"/>
</g>
<!-- 9&#45;&gt;8 -->
<g id="edge15" class="edge">
<title>9&#45;&gt;8</title>
<path fill="none" stroke="grey" stroke-width="2" d="M484.22,-287.34C488.37,-280.26 493.25,-271.92 497.89,-264"/>
<polygon fill="grey" stroke="grey" stroke-width="2" points="500.83,-265.91 502.86,-255.51 494.79,-262.37 500.83,-265.91"/>
</g>
<!-- 10&#45;&gt;6 -->
<g id="edge13" class="edge">
<title>10&#45;&gt;6</title>
<path fill="none" stroke="grey" stroke-width="2" d="M527.4,-143.15C516.23,-135.01 502.8,-125.22 490.61,-116.33"/>
<polygon fill="grey" stroke="grey" stroke-width="2" points="492.89,-113.66 482.75,-110.6 488.77,-119.32 492.89,-113.66"/>
</g>
<!-- 11&#45;&gt;0 -->
<g id="edge7" class="edge">
<title>11&#45;&gt;0</title>
<path fill="none" stroke="grey" stroke-width="2" d="M565.65,-78.12C556.84,-75.96 547.57,-73.8 538.88,-72 438.3,-51.19 318.69,-33.27 257.44,-24.59"/>
<polygon fill="grey" stroke="grey" stroke-width="2" points="257.97,-21.13 247.58,-23.2 256.99,-28.06 257.97,-21.13"/>
</g>
<!-- 12&#45;&gt;0 -->
<g id="edge2" class="edge">
<title>12&#45;&gt;0</title>
<path fill="none" stroke="grey" stroke-width="2" d="M216.88,-215.12C216.88,-178.62 216.88,-95.13 216.88,-49.74"/>
<polygon fill="grey" stroke="grey" stroke-width="2" points="220.38,-50 216.88,-40 213.38,-50 220.38,-50"/>
</g>
</g>
</svg>
